<mxfile host="app.diagrams.net" agent="Mozilla/5.0 (Windows NT 10.0; Win64; x64) AppleWebKit/537.36 (KHTML, like Gecko) Chrome/137.0.0.0 Safari/537.36" version="27.1.4">
  <diagram name="Pagina-1" id="htLQUnw-OTgRh3zyfuaB">
    <mxGraphModel dx="1158" dy="624" grid="1" gridSize="10" guides="1" tooltips="1" connect="1" arrows="1" fold="1" page="1" pageScale="1" pageWidth="827" pageHeight="1169" math="0" shadow="0">
      <root>
        <mxCell id="0" />
        <mxCell id="1" parent="0" />
        <mxCell id="toFR_LG_loBnyXcC3j-q-15" style="edgeStyle=orthogonalEdgeStyle;rounded=0;orthogonalLoop=1;jettySize=auto;html=1;exitX=0;exitY=0.5;exitDx=0;exitDy=0;entryX=0.5;entryY=0;entryDx=0;entryDy=0;" edge="1" parent="1" source="toFR_LG_loBnyXcC3j-q-2" target="toFR_LG_loBnyXcC3j-q-14">
          <mxGeometry relative="1" as="geometry" />
        </mxCell>
        <mxCell id="toFR_LG_loBnyXcC3j-q-2" value="Control Panel" style="rounded=0;whiteSpace=wrap;html=1;" vertex="1" parent="1">
          <mxGeometry x="300" y="210" width="120" height="60" as="geometry" />
        </mxCell>
        <mxCell id="toFR_LG_loBnyXcC3j-q-31" style="edgeStyle=orthogonalEdgeStyle;rounded=0;orthogonalLoop=1;jettySize=auto;html=1;exitX=0.5;exitY=1;exitDx=0;exitDy=0;entryX=0.75;entryY=0;entryDx=0;entryDy=0;" edge="1" parent="1" source="toFR_LG_loBnyXcC3j-q-4" target="toFR_LG_loBnyXcC3j-q-2">
          <mxGeometry relative="1" as="geometry" />
        </mxCell>
        <mxCell id="toFR_LG_loBnyXcC3j-q-4" value="x&lt;span style=&quot;font-size: 10px;&quot;&gt;ref&lt;/span&gt;" style="rounded=0;whiteSpace=wrap;html=1;" vertex="1" parent="1">
          <mxGeometry x="460" y="90" width="120" height="40" as="geometry" />
        </mxCell>
        <mxCell id="toFR_LG_loBnyXcC3j-q-32" style="edgeStyle=orthogonalEdgeStyle;rounded=0;orthogonalLoop=1;jettySize=auto;html=1;exitX=0.5;exitY=1;exitDx=0;exitDy=0;" edge="1" parent="1" source="toFR_LG_loBnyXcC3j-q-5" target="toFR_LG_loBnyXcC3j-q-2">
          <mxGeometry relative="1" as="geometry" />
        </mxCell>
        <mxCell id="toFR_LG_loBnyXcC3j-q-5" value="y&lt;span style=&quot;font-size: 10px;&quot;&gt;ref&lt;/span&gt;" style="rounded=0;whiteSpace=wrap;html=1;" vertex="1" parent="1">
          <mxGeometry x="310" y="90" width="120" height="40" as="geometry" />
        </mxCell>
        <mxCell id="toFR_LG_loBnyXcC3j-q-29" style="edgeStyle=orthogonalEdgeStyle;rounded=0;orthogonalLoop=1;jettySize=auto;html=1;exitX=0.5;exitY=1;exitDx=0;exitDy=0;entryX=0.25;entryY=0;entryDx=0;entryDy=0;" edge="1" parent="1" source="toFR_LG_loBnyXcC3j-q-6" target="toFR_LG_loBnyXcC3j-q-2">
          <mxGeometry relative="1" as="geometry" />
        </mxCell>
        <mxCell id="toFR_LG_loBnyXcC3j-q-6" value="v&lt;span style=&quot;font-size: 10px;&quot;&gt;ref&lt;/span&gt;" style="rounded=0;whiteSpace=wrap;html=1;" vertex="1" parent="1">
          <mxGeometry x="160" y="90" width="120" height="40" as="geometry" />
        </mxCell>
        <mxCell id="toFR_LG_loBnyXcC3j-q-18" style="edgeStyle=orthogonalEdgeStyle;rounded=0;orthogonalLoop=1;jettySize=auto;html=1;exitX=0.5;exitY=1;exitDx=0;exitDy=0;entryX=0;entryY=0.5;entryDx=0;entryDy=0;" edge="1" parent="1" source="toFR_LG_loBnyXcC3j-q-14" target="toFR_LG_loBnyXcC3j-q-16">
          <mxGeometry relative="1" as="geometry" />
        </mxCell>
        <mxCell id="toFR_LG_loBnyXcC3j-q-35" style="edgeStyle=orthogonalEdgeStyle;rounded=0;orthogonalLoop=1;jettySize=auto;html=1;exitX=1;exitY=0.5;exitDx=0;exitDy=0;entryX=0;entryY=0.5;entryDx=0;entryDy=0;" edge="1" parent="1" source="toFR_LG_loBnyXcC3j-q-14" target="toFR_LG_loBnyXcC3j-q-34">
          <mxGeometry relative="1" as="geometry" />
        </mxCell>
        <mxCell id="toFR_LG_loBnyXcC3j-q-14" value="Motor / Power" style="rounded=0;whiteSpace=wrap;html=1;" vertex="1" parent="1">
          <mxGeometry x="30" y="300" width="120" height="60" as="geometry" />
        </mxCell>
        <mxCell id="toFR_LG_loBnyXcC3j-q-20" style="edgeStyle=orthogonalEdgeStyle;rounded=0;orthogonalLoop=1;jettySize=auto;html=1;exitX=1;exitY=0.5;exitDx=0;exitDy=0;entryX=0;entryY=0.5;entryDx=0;entryDy=0;" edge="1" parent="1" source="toFR_LG_loBnyXcC3j-q-16" target="toFR_LG_loBnyXcC3j-q-19">
          <mxGeometry relative="1" as="geometry" />
        </mxCell>
        <mxCell id="toFR_LG_loBnyXcC3j-q-16" value="Wheels" style="rounded=0;whiteSpace=wrap;html=1;" vertex="1" parent="1">
          <mxGeometry x="230" y="410" width="120" height="60" as="geometry" />
        </mxCell>
        <mxCell id="toFR_LG_loBnyXcC3j-q-21" style="edgeStyle=orthogonalEdgeStyle;rounded=0;orthogonalLoop=1;jettySize=auto;html=1;exitX=0.5;exitY=0;exitDx=0;exitDy=0;entryX=0.5;entryY=1;entryDx=0;entryDy=0;" edge="1" parent="1" source="toFR_LG_loBnyXcC3j-q-19" target="toFR_LG_loBnyXcC3j-q-2">
          <mxGeometry relative="1" as="geometry">
            <mxPoint x="370" y="280" as="targetPoint" />
            <Array as="points">
              <mxPoint x="390" y="410" />
              <mxPoint x="390" y="340" />
              <mxPoint x="360" y="340" />
            </Array>
          </mxGeometry>
        </mxCell>
        <mxCell id="toFR_LG_loBnyXcC3j-q-19" value="Sensor&amp;nbsp;&lt;br&gt;V = ω*R" style="rounded=0;whiteSpace=wrap;html=1;" vertex="1" parent="1">
          <mxGeometry x="370" y="410" width="120" height="60" as="geometry" />
        </mxCell>
        <mxCell id="toFR_LG_loBnyXcC3j-q-25" style="edgeStyle=orthogonalEdgeStyle;rounded=0;orthogonalLoop=1;jettySize=auto;html=1;exitX=0;exitY=0.5;exitDx=0;exitDy=0;entryX=1;entryY=0.5;entryDx=0;entryDy=0;" edge="1" parent="1" source="toFR_LG_loBnyXcC3j-q-22" target="toFR_LG_loBnyXcC3j-q-24">
          <mxGeometry relative="1" as="geometry" />
        </mxCell>
        <mxCell id="toFR_LG_loBnyXcC3j-q-26" style="edgeStyle=orthogonalEdgeStyle;rounded=0;orthogonalLoop=1;jettySize=auto;html=1;exitX=0;exitY=0.5;exitDx=0;exitDy=0;entryX=1;entryY=0.5;entryDx=0;entryDy=0;" edge="1" parent="1" source="toFR_LG_loBnyXcC3j-q-22" target="toFR_LG_loBnyXcC3j-q-23">
          <mxGeometry relative="1" as="geometry" />
        </mxCell>
        <mxCell id="toFR_LG_loBnyXcC3j-q-22" value="GPS" style="rounded=0;whiteSpace=wrap;html=1;" vertex="1" parent="1">
          <mxGeometry x="660" y="340" width="120" height="60" as="geometry" />
        </mxCell>
        <mxCell id="toFR_LG_loBnyXcC3j-q-28" style="edgeStyle=orthogonalEdgeStyle;rounded=0;orthogonalLoop=1;jettySize=auto;html=1;exitX=0;exitY=0.5;exitDx=0;exitDy=0;entryX=0.25;entryY=1;entryDx=0;entryDy=0;" edge="1" parent="1" source="toFR_LG_loBnyXcC3j-q-23" target="toFR_LG_loBnyXcC3j-q-2">
          <mxGeometry relative="1" as="geometry">
            <Array as="points">
              <mxPoint x="500" y="390" />
              <mxPoint x="330" y="390" />
            </Array>
          </mxGeometry>
        </mxCell>
        <mxCell id="toFR_LG_loBnyXcC3j-q-23" value="x&lt;span style=&quot;font-size: 10px;&quot;&gt;pos&lt;/span&gt;" style="rounded=0;whiteSpace=wrap;html=1;" vertex="1" parent="1">
          <mxGeometry x="500" y="380" width="120" height="40" as="geometry" />
        </mxCell>
        <mxCell id="toFR_LG_loBnyXcC3j-q-24" value="y&lt;span style=&quot;font-size: 10px;&quot;&gt;pos&lt;/span&gt;" style="rounded=0;whiteSpace=wrap;html=1;" vertex="1" parent="1">
          <mxGeometry x="500" y="330" width="120" height="40" as="geometry" />
        </mxCell>
        <mxCell id="toFR_LG_loBnyXcC3j-q-27" style="edgeStyle=orthogonalEdgeStyle;rounded=0;orthogonalLoop=1;jettySize=auto;html=1;exitX=0;exitY=0.5;exitDx=0;exitDy=0;entryX=0.82;entryY=1.066;entryDx=0;entryDy=0;entryPerimeter=0;" edge="1" parent="1" source="toFR_LG_loBnyXcC3j-q-24" target="toFR_LG_loBnyXcC3j-q-2">
          <mxGeometry relative="1" as="geometry" />
        </mxCell>
        <mxCell id="toFR_LG_loBnyXcC3j-q-37" style="edgeStyle=orthogonalEdgeStyle;rounded=0;orthogonalLoop=1;jettySize=auto;html=1;entryX=0.25;entryY=1;entryDx=0;entryDy=0;" edge="1" parent="1" source="toFR_LG_loBnyXcC3j-q-33" target="toFR_LG_loBnyXcC3j-q-16">
          <mxGeometry relative="1" as="geometry" />
        </mxCell>
        <mxCell id="toFR_LG_loBnyXcC3j-q-33" value="Slope α" style="rounded=0;whiteSpace=wrap;html=1;" vertex="1" parent="1">
          <mxGeometry x="160" y="510" width="120" height="60" as="geometry" />
        </mxCell>
        <mxCell id="toFR_LG_loBnyXcC3j-q-34" value="&lt;div&gt;P&lt;sub&gt;sensor&lt;/sub&gt;&lt;/div&gt;" style="rounded=0;whiteSpace=wrap;html=1;" vertex="1" parent="1">
          <mxGeometry x="170" y="300" width="120" height="60" as="geometry" />
        </mxCell>
        <mxCell id="toFR_LG_loBnyXcC3j-q-38" value="Friction parameters" style="rounded=0;whiteSpace=wrap;html=1;" vertex="1" parent="1">
          <mxGeometry x="300" y="510" width="120" height="60" as="geometry" />
        </mxCell>
        <mxCell id="toFR_LG_loBnyXcC3j-q-40" style="edgeStyle=orthogonalEdgeStyle;rounded=0;orthogonalLoop=1;jettySize=auto;html=1;exitX=1;exitY=0.5;exitDx=0;exitDy=0;entryX=0.091;entryY=1.04;entryDx=0;entryDy=0;entryPerimeter=0;" edge="1" parent="1" source="toFR_LG_loBnyXcC3j-q-34" target="toFR_LG_loBnyXcC3j-q-2">
          <mxGeometry relative="1" as="geometry" />
        </mxCell>
        <mxCell id="toFR_LG_loBnyXcC3j-q-41" style="edgeStyle=orthogonalEdgeStyle;rounded=0;orthogonalLoop=1;jettySize=auto;html=1;exitX=0.5;exitY=0;exitDx=0;exitDy=0;entryX=0.701;entryY=1.056;entryDx=0;entryDy=0;entryPerimeter=0;" edge="1" parent="1" source="toFR_LG_loBnyXcC3j-q-38" target="toFR_LG_loBnyXcC3j-q-16">
          <mxGeometry relative="1" as="geometry" />
        </mxCell>
      </root>
    </mxGraphModel>
  </diagram>
</mxfile>
